<svg id="cc-paypal" xmlns="http://www.w3.org/2000/svg" width="36.012" height="22.608" viewBox="0 0 36.012 22.608">
  <path id="Path_3709" data-name="Path 3709" d="M11.644,11.451a1.169,1.169,0,0,1-.4.905,1.4,1.4,0,0,1-.977.361,1.075,1.075,0,0,1-.727-.235.81.81,0,0,1-.274-.648,1.226,1.226,0,0,1,.391-.92,1.344,1.344,0,0,1,.969-.375,1.091,1.091,0,0,1,.727.243A.828.828,0,0,1,11.644,11.451Zm12.27-2.193a.922.922,0,0,1-.344.839,1.934,1.934,0,0,1-1.032.221l-.5.015L22.3,8.758a.184.184,0,0,1,.2-.162h.281a4,4,0,0,1,.547.029.792.792,0,0,1,.391.184A.548.548,0,0,1,23.914,9.258ZM29.4,11.451a1.176,1.176,0,0,1-.4.9,1.367,1.367,0,0,1-.961.368,1.106,1.106,0,0,1-.735-.235.8.8,0,0,1-.281-.648,1.226,1.226,0,0,1,.391-.92,1.344,1.344,0,0,1,.969-.375,1.091,1.091,0,0,1,.727.243A.828.828,0,0,1,29.4,11.451ZM8.018,8.934a1.388,1.388,0,0,0-.6-1.258,2.845,2.845,0,0,0-1.571-.39h-2.5a.289.289,0,0,0-.328.28L2,13.571a.189.189,0,0,0,.047.162.2.2,0,0,0,.156.074H3.392a.3.3,0,0,0,.344-.28l.281-1.619a.282.282,0,0,1,.109-.191.5.5,0,0,1,.234-.1,1.717,1.717,0,0,1,.266-.022q.125,0,.3.015t.219.015a2.974,2.974,0,0,0,2.11-.714A2.573,2.573,0,0,0,8.018,8.934Zm4.83,4.592.641-3.842a.189.189,0,0,0-.047-.162.2.2,0,0,0-.156-.074H12.1q-.219,0-.266.486a1.706,1.706,0,0,0-1.485-.589,2.6,2.6,0,0,0-1.915.795,2.567,2.567,0,0,0-.789,1.869,1.824,1.824,0,0,0,.539,1.384,2.006,2.006,0,0,0,1.446.515,2.566,2.566,0,0,0,.907-.177,1.986,1.986,0,0,0,.75-.471.946.946,0,0,0-.063.309q0,.235.2.235H12.5A.309.309,0,0,0,12.848,13.526Zm6.987-3.871a.2.2,0,0,0-.063-.14.19.19,0,0,0-.141-.066h-1.2a.336.336,0,0,0-.281.147l-1.657,2.3L15.8,9.685a.327.327,0,0,0-.344-.235H14.286a.19.19,0,0,0-.141.066.2.2,0,0,0-.063.14q0,.029.3.868t.656,1.81q.352.971.367,1.03a13.657,13.657,0,0,0-1.282,1.766q0,.191.2.191h1.2a.336.336,0,0,0,.281-.147L19.8,9.758A.138.138,0,0,0,19.834,9.655Zm5.939-.721a1.388,1.388,0,0,0-.6-1.258,2.845,2.845,0,0,0-1.571-.39H21.116a.3.3,0,0,0-.344.28l-1.016,6.005a.189.189,0,0,0,.047.162.2.2,0,0,0,.156.074h1.282a.246.246,0,0,0,.25-.191l.281-1.707a.282.282,0,0,1,.109-.191.5.5,0,0,1,.234-.1,1.717,1.717,0,0,1,.266-.022q.125,0,.3.015t.219.015a2.974,2.974,0,0,0,2.11-.714A2.573,2.573,0,0,0,25.774,8.934Zm4.83,4.592.641-3.842a.189.189,0,0,0-.047-.162.2.2,0,0,0-.156-.074H29.853q-.219,0-.266.486A1.681,1.681,0,0,0,28.1,9.346a2.6,2.6,0,0,0-1.915.795A2.567,2.567,0,0,0,25.4,12.01a1.824,1.824,0,0,0,.539,1.384,2.006,2.006,0,0,0,1.446.515,2.6,2.6,0,0,0,.922-.177,1.843,1.843,0,0,0,.735-.471,1.158,1.158,0,0,1-.031.132.762.762,0,0,0-.031.177q0,.235.2.235H30.26A.309.309,0,0,0,30.6,13.526Zm3.407-6.02V7.492a.181.181,0,0,0-.2-.206H32.651a.184.184,0,0,0-.2.162l-1.016,6.123-.016.029a.2.2,0,0,0,.063.14.206.206,0,0,0,.156.066h1.032a.289.289,0,0,0,.328-.28ZM6.127,9.479a.828.828,0,0,1-.406.677,2.173,2.173,0,0,1-.938.162l-.516.015.266-1.575a.184.184,0,0,1,.2-.162h.3a1.832,1.832,0,0,1,.907.169Q6.221,8.934,6.127,9.479ZM36.012,1.884v18.84a1.76,1.76,0,0,1-.594,1.325,1.983,1.983,0,0,1-1.407.559H2a1.983,1.983,0,0,1-1.407-.559A1.76,1.76,0,0,1,0,20.724V1.884A1.76,1.76,0,0,1,.594.559,1.983,1.983,0,0,1,2,0h32.01a1.983,1.983,0,0,1,1.407.559A1.76,1.76,0,0,1,36.012,1.884Z" fill="#fff"/>
</svg>
