<svg xmlns="http://www.w3.org/2000/svg" width="18.433" height="17.116" viewBox="0 0 18.433 17.116">
  <g id="chat" transform="translate(-3 -6)">
    <path id="Path_4125" data-name="Path 4125" d="M13.362,23.116l-1.145-.658L14.85,17.85H18.8a1.317,1.317,0,0,0,1.317-1.317v-7.9A1.317,1.317,0,0,0,18.8,7.317H5.633A1.317,1.317,0,0,0,4.317,8.633v7.9A1.317,1.317,0,0,0,5.633,17.85h5.925v1.317H5.633A2.633,2.633,0,0,1,3,16.533v-7.9A2.633,2.633,0,0,1,5.633,6H18.8a2.633,2.633,0,0,1,2.633,2.633v7.9A2.633,2.633,0,0,1,18.8,19.167H15.614Z" transform="translate(0 0)" fill="#08324b"/>
    <path id="Path_4126" data-name="Path 4126" d="M12,15H22.533v1.317H12Z" transform="translate(-5.05 -5.05)" fill="#08324b"/>
    <path id="Path_4127" data-name="Path 4127" d="M12,24h6.583v1.317H12Z" transform="translate(-5.05 -10.1)" fill="#08324b"/>
  </g>
</svg>
