<svg xmlns="http://www.w3.org/2000/svg" width="127.17" height="36" viewBox="0 0 127.17 36">
  <g id="fawry-seeklogo.com-3" transform="translate(-100.8 -267.8)">
    <path id="Path_3711" data-name="Path 3711" d="M573.328,343.927c.324-1.035.6-2.069.927-3.151.4-1.359.772-2.687,1.189-4.031a1.593,1.593,0,0,1,1.761-1.328h2.069a1.531,1.531,0,0,1,1.668,1.236c.664,2.193,1.3,4.417,1.931,6.61a1.941,1.941,0,0,0,.293.633c.108-.34.2-.664.324-1,.571-1.961,1.158-3.954,1.76-5.915a1.889,1.889,0,0,1,2.1-1.591h2.224c.633,0,.9.293.757.9-.2.772-.463,1.56-.7,2.3-1.127,3.521-2.286,7.073-3.4,10.579a1.845,1.845,0,0,1-1.9,1.39H582.7a1.812,1.812,0,0,1-1.9-1.39c-.772-2.5-1.591-5.019-2.363-7.521-.031-.139-.093-.263-.17-.525-.093.232-.108.34-.17.463-.8,2.5-1.591,5.05-2.394,7.552a1.806,1.806,0,0,1-1.931,1.39h-1.7a1.782,1.782,0,0,1-1.822-1.328c-1.235-3.83-2.456-7.645-3.691-11.475-.108-.4-.262-.772-.37-1.189a2.037,2.037,0,0,1-.093-.6.532.532,0,0,1,.6-.6c.927,0,1.823-.031,2.734,0a1.794,1.794,0,0,1,1.7,1.328c.664,2.255,1.328,4.494,2.023,6.749a3.85,3.85,0,0,1,.108.4C573.251,343.927,573.282,343.927,573.328,343.927Z" transform="translate(-393.439 -57.085)" fill="#fff"/>
    <path id="Path_3712" data-name="Path 3712" d="M467.159,348.366c-.232.139-.432.263-.633.371a8.173,8.173,0,0,1-4.726,1.127,8.57,8.57,0,0,1-3.151-.7,4.407,4.407,0,0,1-2.764-4.247,4.361,4.361,0,0,1,3.027-4.185,8.459,8.459,0,0,1,3.166-.571h4.263c.371,0,.463-.108.432-.463-.2-1.761-.927-2.456-2.718-2.456a4.243,4.243,0,0,0-2.054.432,3.548,3.548,0,0,0-.664.525,2.012,2.012,0,0,1-1.591.726h-1.822c-.726,0-1.035-.371-.973-1.1a3.318,3.318,0,0,1,2.131-2.919,10.667,10.667,0,0,1,3.259-.757,14.241,14.241,0,0,1,4.649.232,5.412,5.412,0,0,1,3.83,2.826,5.925,5.925,0,0,1,.6,2.718v8.68c0,.695-.293.958-.958.958h-2.224c-.757,0-1-.232-1.035-1C467.19,348.536,467.19,348.474,467.159,348.366Zm-2.734-5.05c-.695.031-1.421,0-2.1.031a1.746,1.746,0,0,0-1.591,1,1.612,1.612,0,0,0,1.236,2.286,6.475,6.475,0,0,0,4.68-1.066.478.478,0,0,0,.139-.371c.031-.494,0-1,0-1.5,0-.293-.108-.371-.371-.371C465.739,343.316,465.09,343.316,464.426,343.316Z" transform="translate(-300.244 -56.041)" fill="#fff"/>
    <path id="Path_3713" data-name="Path 3713" d="M823.739,350.323c-.463-.062-.865-.093-1.236-.17a5.043,5.043,0,0,1-3.15-1.931,12.018,12.018,0,0,1-1.869-3.815c-.757-2.394-1.467-4.788-2.162-7.181-.17-.571.093-.927.7-.927h2.625A1.3,1.3,0,0,1,820,337.335c.664,2.131,1.3,4.263,1.961,6.409a6.965,6.965,0,0,0,1.189,2.425,2.045,2.045,0,0,0,1.189.757c.293.062.432,0,.525-.324.772-2.826,1.56-5.653,2.332-8.479.093-.293.17-.6.263-.9a1.189,1.189,0,0,1,1.235-.927h2.595c.664,0,.927.34.757.958-1.236,4.494-2.456,9.035-3.722,13.529a16.99,16.99,0,0,1-1.235,3,4.683,4.683,0,0,1-4.448,2.656,28.748,28.748,0,0,1-3.629-.293.875.875,0,0,1-.865-1v-1.359a.8.8,0,0,1,.865-.865c.571.031,1.189.093,1.761.17a2.148,2.148,0,0,0,2.1-.726A5.981,5.981,0,0,0,823.739,350.323Z" transform="translate(-604.128 -57.921)" fill="#fff"/>
    <path id="Path_3714" data-name="Path 3714" d="M380.546,316.406c0-2.193-.062-4.355.031-6.548a10.009,10.009,0,0,1,.494-2.595,4.6,4.6,0,0,1,3.629-3.027,17.141,17.141,0,0,1,5.683-.263,10.728,10.728,0,0,1,1.436.2.924.924,0,0,1,.865,1.035v1.266a.855.855,0,0,1-.958.927,7.352,7.352,0,0,1-1.3-.108,7.785,7.785,0,0,0-3.429.139,2.171,2.171,0,0,0-1.761,2.193c-.062.371-.062.772-.093,1.158-.031.34.093.463.463.463,1.421-.031,2.857,0,4.263,0,.757,0,1,.263,1.035,1v1.39a.841.841,0,0,1-.957.927H385.6c-.34,0-.463.108-.463.463v7.985c0,.8-.263,1.066-1.066,1.066h-2.533c-.772,0-1.035-.262-1.035-1.035C380.516,320.792,380.516,318.6,380.546,316.406Z" transform="translate(-236.503 -30.49)" fill="#fff"/>
    <path id="Path_3715" data-name="Path 3715" d="M740.48,336.292c.432-.293.757-.525,1.066-.726a8.748,8.748,0,0,1,4.927-1.266.8.8,0,0,1,.834.834c.031.695.031,1.421,0,2.1a.787.787,0,0,1-.865.834c-.633,0-1.3,0-1.931-.062a4.178,4.178,0,0,0-3.259,1.189,2.2,2.2,0,0,0-.8,1.869c.062,2.533.031,5.081.031,7.645,0,.8-.263,1.066-1.1,1.066h-2.656a.832.832,0,0,1-.927-.927V335.52a.832.832,0,0,1,.927-.927h2.857a.828.828,0,0,1,.9.9Z" transform="translate(-536.931 -56.23)" fill="#fff"/>
    <path id="Path_3716" data-name="Path 3716" d="M136.8,285.808a17.965,17.965,0,0,1-30.255,13.143,17.785,17.785,0,0,1-5.745-13.158A17.981,17.981,0,0,1,118.792,267.8a17.89,17.89,0,0,1,12.664,5.22A17.974,17.974,0,0,1,136.8,285.808Z" transform="translate(0)" fill="#fff"/>
    <path id="Path_3717" data-name="Path 3717" d="M158.433,374.918l-2.425-1.2s-4.124,7.521-11.367,10.734a17.825,17.825,0,0,1-6.842-4.015,12.294,12.294,0,0,0,6.842-3.691c4.417-4.324,5.421-6.718,5.421-6.718l-1.9-1.266a.934.934,0,0,1,.2-1.668l8.309-2.888a.917.917,0,0,1,1.236.772l1.236,9.405A.48.48,0,0,1,158.433,374.918Z" transform="translate(-31.286 -81.465)" fill="#08324b"/>
    <path id="Path_3718" data-name="Path 3718" d="M252.642,289.116a.537.537,0,0,1-1.035-.108l-.541-3.166-4.093,1.266a.55.55,0,0,1-.664-.757,32.362,32.362,0,0,0,1.961-5.56,10.068,10.068,0,0,0-.324-5.792,17.824,17.824,0,0,1,6.548,4.154A23.926,23.926,0,0,1,252.642,289.116Z" transform="translate(-122.992 -6.088)" fill="#08324b"/>
  </g>
</svg>
