<svg id="Group_52" data-name="Group 52" xmlns="http://www.w3.org/2000/svg" width="16" height="13" viewBox="0 0 16 13">
  <path id="Path_8" data-name="Path 8" d="M8.933,12.6a1.562,1.562,0,0,1-.933.26,1.562,1.562,0,0,1-.933-.26L0,8.9v6.565a1.975,1.975,0,0,0,2,1.95H14a1.975,1.975,0,0,0,2-1.95V8.9Z" transform="translate(0 -4.415)" fill="#666"/>
  <path id="Path_9" data-name="Path 9" d="M14,2H2A1.975,1.975,0,0,0,0,3.95V4.6a.679.679,0,0,0,.333.585l7.333,3.9A.613.613,0,0,0,8,9.15a.613.613,0,0,0,.333-.065l7.333-3.9A.679.679,0,0,0,16,4.6V3.95A1.975,1.975,0,0,0,14,2Z" transform="translate(0 -2)" fill="#666"/>
</svg>
