<svg xmlns="http://www.w3.org/2000/svg" width="44" height="44" viewBox="0 0 44 44">
  <g id="Group_370" data-name="Group 370" transform="translate(-358 -2592)">
    <circle id="Ellipse_146" data-name="Ellipse 146" cx="22" cy="22" r="22" transform="translate(358 2592)" fill="#fff"/>
    <g id="instagram" transform="translate(371 2605)">
      <g id="Group_369" data-name="Group 369" transform="translate(0 0)">
        <path id="Path_3706" data-name="Path 3706" d="M9.023,0C6.574,0,6.267.011,5.3.054a6.649,6.649,0,0,0-2.191.42,4.418,4.418,0,0,0-1.6,1.041,4.429,4.429,0,0,0-1.041,1.6A6.609,6.609,0,0,0,.054,5.3C.011,6.265,0,6.572,0,9.024s.011,2.757.054,3.719a6.647,6.647,0,0,0,.42,2.19,4.619,4.619,0,0,0,2.638,2.639,6.624,6.624,0,0,0,2.19.42c.963.043,1.27.054,3.721.054s2.757-.011,3.72-.054a6.661,6.661,0,0,0,2.191-.42,4.619,4.619,0,0,0,2.638-2.639,6.677,6.677,0,0,0,.42-2.19c.043-.962.054-1.269.054-3.72s-.011-2.758-.054-3.721a6.669,6.669,0,0,0-.42-2.189,4.428,4.428,0,0,0-1.041-1.6,4.411,4.411,0,0,0-1.6-1.041,6.638,6.638,0,0,0-2.191-.42C11.778.011,11.473,0,9.021,0h0ZM8.214,1.626h.81c2.409,0,2.695.008,3.645.052a5,5,0,0,1,1.676.31,2.8,2.8,0,0,1,1.038.676A2.788,2.788,0,0,1,16.058,3.7a4.956,4.956,0,0,1,.31,1.675c.044.951.053,1.236.053,3.644s-.009,2.695-.053,3.645a4.992,4.992,0,0,1-.31,1.675,2.991,2.991,0,0,1-1.713,1.711,4.964,4.964,0,0,1-1.675.311c-.951.043-1.236.053-3.645.053s-2.7-.01-3.646-.053A4.984,4.984,0,0,1,3.7,16.052a2.8,2.8,0,0,1-1.038-.674,2.8,2.8,0,0,1-.677-1.038,4.985,4.985,0,0,1-.31-1.675c-.043-.951-.052-1.236-.052-3.646s.009-2.693.052-3.644A4.992,4.992,0,0,1,1.99,3.7a2.8,2.8,0,0,1,.676-1.038A2.788,2.788,0,0,1,3.7,1.986a4.984,4.984,0,0,1,1.675-.311c.832-.038,1.155-.05,2.837-.051v0Zm5.626,1.5a1.083,1.083,0,1,0,1.083,1.083A1.083,1.083,0,0,0,13.84,3.124ZM9.024,4.39a4.634,4.634,0,1,0,4.634,4.634A4.634,4.634,0,0,0,9.024,4.39Zm0,1.625A3.008,3.008,0,1,1,6.016,9.023,3.008,3.008,0,0,1,9.024,6.015Z" transform="translate(0 0)" fill="#08324b"/>
      </g>
    </g>
  </g>
</svg>
