<svg xmlns="http://www.w3.org/2000/svg" width="44" height="44" viewBox="0 0 44 44">
  <g id="Group_367" data-name="Group 367" transform="translate(-238 -2592)">
    <circle id="Ellipse_146" data-name="Ellipse 146" cx="22" cy="22" r="22" transform="translate(238 2592)" fill="#fff"/>
    <g id="twitter-icon" transform="translate(249 2547.551)">
      <g id="Group_602" data-name="Group 602" transform="translate(0 57.449)">
        <path id="Path_3" data-name="Path 3" d="M21.51,59.509a8.812,8.812,0,0,1-2.533.7,4.431,4.431,0,0,0,1.939-2.44,8.9,8.9,0,0,1-2.8,1.071,4.416,4.416,0,0,0-7.519,4.018A12.527,12.527,0,0,1,1.5,58.247a4.418,4.418,0,0,0,1.365,5.89,4.412,4.412,0,0,1-2-.554v.055a4.417,4.417,0,0,0,3.539,4.327,4.469,4.469,0,0,1-1.163.155,4.237,4.237,0,0,1-.832-.082A4.415,4.415,0,0,0,6.533,71.1a8.853,8.853,0,0,1-5.48,1.886A9.378,9.378,0,0,1,0,72.929a12.472,12.472,0,0,0,6.763,1.985A12.467,12.467,0,0,0,19.316,62.36l-.015-.571a8.811,8.811,0,0,0,2.208-2.28Z" transform="translate(0 -57.449)" fill="#08324b"/>
      </g>
    </g>
  </g>
</svg>
