<svg xmlns="http://www.w3.org/2000/svg" width="44" height="44" viewBox="0 0 44 44">
  <g id="Group_362" data-name="Group 362" transform="translate(-69 -2599)">
    <circle id="Ellipse_146" data-name="Ellipse 146" cx="22" cy="22" r="22" transform="translate(69 2599)" fill="#fff"/>
    <g id="facebook-icon" transform="translate(62.923 2610.008)">
      <path id="Path_2" data-name="Path 2" d="M33.009,0H30.284a4.785,4.785,0,0,0-5.043,5.171V7.555H22.506a.429.429,0,0,0-.429.429v3.454a.429.429,0,0,0,.429.429h2.74v8.72a.429.429,0,0,0,.428.425h3.572a.429.429,0,0,0,.429-.429V11.872h3.2a.429.429,0,0,0,.429-.429V7.985a.429.429,0,0,0-.429-.429h-3.2V5.535c0-.972.231-1.465,1.5-1.465h1.835a.429.429,0,0,0,.429-.429V.433A.429.429,0,0,0,33.009,0Z" transform="translate(0 0)" fill="#08324b"/>
    </g>
  </g>
</svg>
