<svg xmlns="http://www.w3.org/2000/svg" width="44" height="44" viewBox="0 0 44 44">
  <g id="Group_366" data-name="Group 366" transform="translate(-298 -2592)">
    <circle id="Ellipse_146" data-name="Ellipse 146" cx="22" cy="22" r="22" transform="translate(298 2592)" fill="#fff"/>
    <g id="whatsapp" transform="translate(311 2604)">
      <g id="Group_365" data-name="Group 365" transform="translate(0 0)">
        <path id="Path_3705" data-name="Path 3705" d="M16.151,2.762A9.327,9.327,0,0,0,9.493,0,9.422,9.422,0,0,0,1.331,14.121L0,19l4.992-1.309a9.421,9.421,0,0,0,4.5,1.146h0A9.412,9.412,0,0,0,16.15,2.762ZM9.493,17.244a7.806,7.806,0,0,1-3.985-1.093l-.285-.171-2.962.777.791-2.889-.185-.3a7.822,7.822,0,1,1,6.626,3.674Zm4.293-5.859c-.234-.118-1.389-.686-1.607-.767s-.374-.118-.528.118-.609.767-.745.92-.276.176-.511.059A6.424,6.424,0,0,1,8.5,10.545,7.179,7.179,0,0,1,7.2,8.916c-.135-.235-.013-.361.1-.479s.234-.276.352-.411a1.5,1.5,0,0,0,.235-.392.438.438,0,0,0-.018-.412C7.809,7.1,7.34,5.945,7.142,5.477s-.384-.4-.528-.4-.293-.008-.451-.008a.866.866,0,0,0-.628.293,2.636,2.636,0,0,0-.821,1.964,4.558,4.558,0,0,0,.962,2.433,10.46,10.46,0,0,0,4.017,3.553,13.088,13.088,0,0,0,1.341.5,3.232,3.232,0,0,0,1.48.1A2.437,2.437,0,0,0,14.1,12.78a1.97,1.97,0,0,0,.135-1.12c-.058-.1-.216-.158-.451-.276Z" transform="translate(0 0)" fill="#08324b"/>
      </g>
    </g>
  </g>
</svg>
