<svg xmlns="http://www.w3.org/2000/svg" width="9.1" height="13" viewBox="0 0 9.1 13">
  <g id="location_pin" transform="translate(-5 -2)">
    <path id="Path_2140" data-name="Path 2140" d="M9.55,2A4.547,4.547,0,0,0,5,6.55,5.917,5.917,0,0,0,5.916,9.7c.617,1,1.43,1.859,2.054,2.86a11.217,11.217,0,0,1,.76,1.469c.169.357.306.975.819.975s.65-.618.813-.975a12.071,12.071,0,0,1,.761-1.469c.624-.995,1.437-1.852,2.054-2.86A5.866,5.866,0,0,0,14.1,6.55,4.547,4.547,0,0,0,9.55,2Zm0,6.337a1.625,1.625,0,1,1,1.625-1.625A1.625,1.625,0,0,1,9.55,8.337Z" fill="#08324b"/>
  </g>
</svg>
