<svg xmlns="http://www.w3.org/2000/svg" width="36" height="22.608" viewBox="0 0 36 22.608">
  <g id="mastercard" transform="translate(0 -7.02)">
    <path id="Path_3708" data-name="Path 3708" d="M1.675,7.02A1.675,1.675,0,0,0,0,8.7V27.953a1.675,1.675,0,0,0,1.675,1.675h32.65A1.675,1.675,0,0,0,36,27.953V8.7A1.675,1.675,0,0,0,34.325,7.02H1.675ZM11.8,9.741a8.613,8.613,0,0,1,5.424,1.909,8.863,8.863,0,0,0-2.635,4.241h.719a8.314,8.314,0,0,1,2.206-3.557,8.314,8.314,0,0,1,2.206,3.557h.73a8.862,8.862,0,0,0-2.642-4.216A8.624,8.624,0,1,1,17.739,25a8.858,8.858,0,0,0,2.774-4.5h-.7a8.307,8.307,0,0,1-2.292,3.85,8.305,8.305,0,0,1-2.291-3.85h-.669A8.857,8.857,0,0,0,17.3,24.937a8.6,8.6,0,1,1-5.5-15.2Zm10.8,6.063c-1.036,0-2.044.906-2.044,2.607,0,1.128.544,1.872,1.615,1.872a4.114,4.114,0,0,0,.785-.124l.16-.985a2.145,2.145,0,0,1-.743.223c-.637,0-.892-.49-.892-1.016,0-1.068.548-1.655,1.158-1.655a1.592,1.592,0,0,1,.825.259l.146-.958a3.2,3.2,0,0,0-1.01-.222Zm8.711.083-.9,0-.194,1.186a1.192,1.192,0,0,0-.868-.46c-.824,0-1.51.978-1.51,2.1,0,.726.365,1.439,1.114,1.439a1.129,1.129,0,0,0,.837-.37l-.039.316h.875ZM5.51,15.9l-.718,4.227h.865L6.2,16.939l.081,3.187H6.9l1.154-3.187-.512,3.187h.919L9.174,15.9H7.752l-.885,2.593L6.821,15.9H5.51Zm9.038.274c-.02.02-.523,2.923-.523,3.277a.66.66,0,0,0,.707.754,2.177,2.177,0,0,0,.631-.108l.033-.009.111-.756c-.061,0-.15.026-.228.026-.308,0-.343-.164-.323-.286L15.2,17.53h.469l.114-.836h-.442l.09-.52Zm10.457.425a2.973,2.973,0,0,0-1.066.2l-.128.776a2.728,2.728,0,0,1,.96-.159c.328,0,.568.038.568.311a.6.6,0,0,1-.029.227s-.259-.022-.379-.022c-.761,0-1.561.334-1.561,1.338a.846.846,0,0,0,.851.972,1.138,1.138,0,0,0,.9-.414l-.029.344h.775l.346-2.484A1.048,1.048,0,0,0,25.005,16.6Zm-14.541,0a3,3,0,0,0-1.071.2l-.128.776a2.745,2.745,0,0,1,.963-.159c.329,0,.57.038.57.311a.6.6,0,0,1-.029.227s-.26-.023-.38-.023c-.764,0-1.567.333-1.567,1.337a.847.847,0,0,0,.853.972,1.144,1.144,0,0,0,.907-.414l-.029.344h.778l.348-2.483A1.051,1.051,0,0,0,10.465,16.6Zm2.749,0c-.651,0-1.312.263-1.312,1.16,0,1.017,1.1.914,1.1,1.342,0,.286-.307.309-.545.309a2.852,2.852,0,0,1-.781-.135l-.118.776a2.776,2.776,0,0,0,.988.109c.2,0,1.331.05,1.331-1.129,0-1.1-1.049-.884-1.049-1.328,0-.221.17-.29.483-.29.124,0,.6.039.6.039l.11-.784a4.06,4.06,0,0,0-.811-.07Zm4.068,0c-.9,0-1.574.973-1.574,2.071a1.41,1.41,0,0,0,1.554,1.569,2.3,2.3,0,0,0,.951-.147l.157-.865a2.807,2.807,0,0,1-.955.221c-.966,0-.8-.719-.8-.719h1.828a6.423,6.423,0,0,0,.118-.818A1.2,1.2,0,0,0,17.282,16.6Zm3.275.037c-.407,0-.71.548-.71.548l.081-.5h-.846l-.568,3.472h.935c.265-1.483.313-2.686.945-2.466a3.4,3.4,0,0,1,.339-1.038.922.922,0,0,0-.175-.012Zm7.575,0c-.407,0-.71.548-.71.548l.081-.5h-.846l-.568,3.472h.934c.265-1.483.314-2.686.946-2.466a3.412,3.412,0,0,1,.339-1.038.922.922,0,0,0-.175-.012Zm-10.854.746c.514,0,.42.58.42.627H16.686c0-.06.1-.627.592-.627Zm12.221.067c.327,0,.5.221.5.74,0,.471-.238,1.1-.73,1.1-.327,0-.48-.27-.48-.693,0-.692.317-1.149.715-1.149Zm-4.492,1.181a.529.529,0,0,1,.183.019s0,0,.009,0c.017.155-.093.88-.627.88a.329.329,0,0,1-.345-.348C24.227,18.938,24.358,18.636,25.006,18.636Zm-14.541,0a.548.548,0,0,1,.194.021c.017.155-.094.879-.629.879a.329.329,0,0,1-.348-.347C9.683,18.941,9.815,18.639,10.466,18.639Z" fill="#fff"/>
  </g>
</svg>
