<svg id="pen" xmlns="http://www.w3.org/2000/svg" width="20" height="20" viewBox="0 0 20 20">
  <path id="Path_2056" data-name="Path 2056" d="M10.471,2.677,2,11.146a.608.608,0,0,0-.156.27L.022,18.1a.608.608,0,0,0,.746.746l6.684-1.823a.608.608,0,0,0,.27-.156L16.191,8.4Z" transform="translate(0 1.132)" fill="#f0f0f0"/>
  <path id="Path_2057" data-name="Path 2057" d="M16.828,3.676,13.685.534a1.823,1.823,0,0,0-2.578,0l-1.43,1.43,5.72,5.72,1.43-1.43a1.823,1.823,0,0,0,0-2.578Z" transform="translate(2.638 0)" fill="#f0f0f0"/>
</svg>
