<svg id="plus" xmlns="http://www.w3.org/2000/svg" width="25" height="25" viewBox="0 0 25 25">
  <path id="Path_4266" data-name="Path 4266" d="M25,10.8V14.2a1.7,1.7,0,0,1-1.7,1.7H15.909V23.3A1.7,1.7,0,0,1,14.2,25H10.8a1.7,1.7,0,0,1-1.7-1.7V15.909H1.7a1.644,1.644,0,0,1-1.207-.5A1.644,1.644,0,0,1,0,14.2V10.8A1.644,1.644,0,0,1,.5,9.588a1.644,1.644,0,0,1,1.207-.5H9.091V1.7A1.644,1.644,0,0,1,9.588.5,1.644,1.644,0,0,1,10.8,0H14.2a1.644,1.644,0,0,1,1.207.5,1.644,1.644,0,0,1,.5,1.207V9.091H23.3A1.7,1.7,0,0,1,25,10.8Z" fill="#cb955b"/>
</svg>
