<svg xmlns="http://www.w3.org/2000/svg" width="248.723" height="251.754" viewBox="0 0 248.723 251.754">
  <g id="Uploading-bro" transform="translate(0 0.509)">
    <g id="freepik--background-simple--inject-9" transform="translate(0 13.86)">
      <path id="Path_2069" data-name="Path 2069" d="M185.082,43.269s-41.011-14.556-81.267,8.638S43.24,121.211,25.8,158.131s-7.406,74.477,23.328,91.576,51.631-8.119,94.742-9.345,54.7,4.932,90.505-19.424,42.216-81.851,14-124.41S185.082,43.269,185.082,43.269Z" transform="translate(-17.264 -38.761)" fill="#cb955b"/>
      <path id="Path_2070" data-name="Path 2070" d="M185.082,43.269s-41.011-14.556-81.267,8.638S43.24,121.211,25.8,158.131s-7.406,74.477,23.328,91.576,51.631-8.119,94.742-9.345,54.7,4.932,90.505-19.424,42.216-81.851,14-124.41S185.082,43.269,185.082,43.269Z" transform="translate(-17.264 -38.761)" fill="#fff" opacity="0.8"/>
    </g>
    <g id="freepik--Clouds--inject-9" transform="translate(20.652 0)">
      <path id="Path_2078" data-name="Path 2078" d="M273.6,52.614a20.168,20.168,0,0,0-31.029-20.484,27.205,27.205,0,0,0-52.365,10.363v1a17.71,17.71,0,0,0,2.415,34.58v.187h80.116a12.853,12.853,0,0,0,.862-25.641Z" transform="translate(-112.263 -13.991)" fill="none" stroke="#263238" stroke-linecap="round" stroke-linejoin="round" stroke-width="1"/>
      <path id="Path_2079" data-name="Path 2079" d="M95.292,121.049a8.371,8.371,0,0,0,.145-1.521,8.279,8.279,0,0,0-12.853-6.882,11.161,11.161,0,0,0-21.475,4.247c0,.139,0,.273,0,.407a7.262,7.262,0,0,0,.991,14.181v.107H94.944a5.264,5.264,0,0,0,.359-10.513Z" transform="translate(-55.826 -56.014)" fill="none" stroke="#263238" stroke-linecap="round" stroke-linejoin="round" stroke-width="1"/>
      <path id="Path_2080" data-name="Path 2080" d="M385.86,23.061a5.312,5.312,0,0,0,.1-1.012,5.511,5.511,0,0,0-8.569-4.579A7.423,7.423,0,0,0,363.11,20.3v.273A4.82,4.82,0,0,0,363.769,30v.08h21.85a3.5,3.5,0,0,0,.236-6.994Z" transform="translate(-196.9 -12.88)" fill="none" stroke="#263238" stroke-linecap="round" stroke-linejoin="round" stroke-width="1"/>
    </g>
    <g id="freepik--Device--inject-9" transform="translate(96.887 84.952)">
      <path id="Path_2081" data-name="Path 2081" d="M279.015,178.42h-27.9l-1.162,2.142a7.24,7.24,0,0,1-12.66,0l-1.162-2.142H208.217a5.318,5.318,0,0,0-5.387,5.248V327.373a5.318,5.318,0,0,0,5.387,5.254h70.8a5.318,5.318,0,0,0,5.387-5.254V183.668a5.318,5.318,0,0,0-5.387-5.248Z" transform="translate(-200.34 -174.719)" fill="#fff"/>
      <rect id="Rectangle_139" data-name="Rectangle 139" width="76.79" height="143.009" transform="translate(5.163 12.376)" fill="#cb955b"/>
      <path id="Path_2082" data-name="Path 2082" d="M263.3,309.023c0,.407.161.653.536.653s.536-.246.536-.653V305.59h.471v3.433c0,.68-.316,1.135-1.012,1.135s-1-.455-1-1.135v-3.411h.5Z" transform="translate(-228.208 -233.785)" fill="#263238"/>
      <path id="Path_2083" data-name="Path 2083" d="M268.445,305.615c.707,0,1.007.418,1.007,1.1v.535c0,.712-.332,1.071-1.044,1.071h-.445V310.1h-.5V305.61Zm-.037,2.271c.369,0,.535-.171.535-.6v-.6c0-.412-.15-.616-.535-.616h-.482v1.815Z" transform="translate(-230.358 -233.795)" fill="#263238"/>
      <path id="Path_2084" data-name="Path 2084" d="M272,310.1V305.61h.5v4.038h1.285v.455Z" transform="translate(-232.467 -233.795)" fill="#263238"/>
      <path id="Path_2085" data-name="Path 2085" d="M275.92,306.66c0-.685.343-1.13,1.028-1.13a.989.989,0,0,1,1.034,1.13v2.335c0,.68-.337,1.13-1.034,1.13s-1.028-.45-1.028-1.13Zm.5,2.351c0,.412.171.653.536.653s.535-.241.535-.653v-2.372c0-.407-.166-.653-.535-.653s-.536.246-.536.653Z" transform="translate(-234.288 -233.758)" fill="#263238"/>
      <path id="Path_2086" data-name="Path 2086" d="M281.047,309.208l-.177.905h-.461l.862-4.493H282l.873,4.488h-.535l-.171-.9Zm.064-.428h1l-.509-2.6Z" transform="translate(-236.373 -233.799)" fill="#263238"/>
      <path id="Path_2087" data-name="Path 2087" d="M286.751,305.62c.7,0,1.023.423,1.023,1.114V309c0,.685-.321,1.109-1.023,1.109H285.68V305.62Zm0,4.038c.359,0,.536-.225.536-.637v-2.308c0-.412-.177-.637-.536-.637h-.536v3.583Z" transform="translate(-238.821 -233.799)" fill="#263238"/>
      <path id="Path_2088" data-name="Path 2088" d="M290.968,305.615V310.1h-.5V305.61Z" transform="translate(-241.045 -233.795)" fill="#263238"/>
      <path id="Path_2089" data-name="Path 2089" d="M292.8,310.1h-.45V305.61h.637l1.039,3.251V305.61h.445V310.1h-.536l-1.151-3.636Z" transform="translate(-241.919 -233.795)" fill="#263238"/>
      <path id="Path_2090" data-name="Path 2090" d="M299.244,306.665v.386h-.477v-.407c0-.407-.161-.653-.535-.653s-.536.246-.536.653V309c0,.407.166.653.536.653s.535-.246.535-.653v-.9h-.461v-.445h.937V309c0,.68-.321,1.13-1.018,1.13s-1.007-.45-1.007-1.13v-2.33c0-.68.321-1.13,1.007-1.13S299.244,305.984,299.244,306.665Z" transform="translate(-244.181 -233.762)" fill="#263238"/>
      <rect id="Rectangle_140" data-name="Rectangle 140" width="22.942" height="3.856" transform="translate(24.72 78.242)" fill="#fff" stroke="#263238" stroke-linecap="round" stroke-linejoin="round" stroke-width="1"/>
      <rect id="Rectangle_141" data-name="Rectangle 141" width="39.651" height="3.856" transform="translate(24.72 78.242)" fill="none" stroke="#263238" stroke-width="1"/>
      <rect id="Rectangle_142" data-name="Rectangle 142" width="5.628" height="3.085" transform="translate(72.827 5.762)" fill="none" stroke="#263238" stroke-linecap="round" stroke-linejoin="round" stroke-width="0.821"/>
      <rect id="Rectangle_143" data-name="Rectangle 143" width="4.386" height="3.085" transform="translate(72.827 5.762)" fill="#263238" stroke="#263238" stroke-linecap="round" stroke-linejoin="round" stroke-width="0.725"/>
      <rect id="Rectangle_144" data-name="Rectangle 144" width="0.793" height="1.36" transform="translate(78.44 6.625)" fill="#263238" stroke="#263238" stroke-linecap="round" stroke-linejoin="round" stroke-width="0.725"/>
      <rect id="Rectangle_145" data-name="Rectangle 145" width="1.034" height="1.767" transform="translate(7.133 6.721)" fill="#263238" stroke="#263238" stroke-linecap="round" stroke-linejoin="round" stroke-width="0.883"/>
      <rect id="Rectangle_146" data-name="Rectangle 146" width="1.034" height="2.388" transform="translate(8.756 6.1)" fill="#263238" stroke="#263238" stroke-linecap="round" stroke-linejoin="round" stroke-width="0.883"/>
      <rect id="Rectangle_147" data-name="Rectangle 147" width="1.034" height="3.122" transform="translate(10.379 5.366)" fill="#263238" stroke="#263238" stroke-linecap="round" stroke-linejoin="round" stroke-width="0.883"/>
      <line id="Line_90" data-name="Line 90" x2="76.571" transform="translate(4.986 9.902)" fill="none" stroke="#263238" stroke-linecap="round" stroke-linejoin="round" stroke-width="1"/>
      <path id="Path_2091" data-name="Path 2091" d="M286.217,224.6a.573.573,0,0,0,.573-.568V208.724a.573.573,0,0,0-.573-.568h-1.483V178.868a7.358,7.358,0,0,0-7.358-7.358H205.538a7.358,7.358,0,0,0-7.358,7.358V329.889a7.358,7.358,0,0,0,7.358,7.364h71.837a7.358,7.358,0,0,0,7.358-7.358V237.782h1.483a.573.573,0,0,0,.573-.573v-6.828a.568.568,0,0,0-.573-.568h-1.483V224.6Zm-3.974,99.567a5.318,5.318,0,0,1-5.387,5.254h-70.8a5.318,5.318,0,0,1-5.387-5.254V180.459a5.318,5.318,0,0,1,5.387-5.248h27.907l1.162,2.142a7.24,7.24,0,0,0,12.66,0l1.162-2.142h27.907a5.318,5.318,0,0,1,5.387,5.248Z" transform="translate(-198.18 -171.51)" fill="#263238" stroke="#263238" stroke-linecap="round" stroke-linejoin="round" stroke-width="1"/>
    </g>
    <g id="freepik--Icons--inject-9" transform="translate(110.099 27.412)">
      <rect id="Rectangle_148" data-name="Rectangle 148" width="21.25" height="21.732" transform="translate(0 165.764) rotate(-8.31)" fill="#263238" stroke="#263238" stroke-linecap="round" stroke-linejoin="round" stroke-width="1"/>
      <path id="Path_2092" data-name="Path 2092" d="M242.134,382.21l-4.14,5.955-3.979-.535a1.28,1.28,0,0,0-1.071.369l-5.645,5.618.766,5.227,21.03-3.085-1.607-11.054-3.476-2.769a1.285,1.285,0,0,0-1.88.273Z" transform="translate(-224.917 -211.57)" fill="#fff" stroke="#263238" stroke-linecap="round" stroke-linejoin="round" stroke-width="1"/>
      <path id="Path_2093" data-name="Path 2093" d="M237.072,382.592a2.742,2.742,0,1,0-3.047-2.324A2.71,2.71,0,0,0,237.072,382.592Z" transform="translate(-228.027 -209.472)" fill="#fff" stroke="#263238" stroke-linecap="round" stroke-linejoin="round" stroke-width="1"/>
      <rect id="Rectangle_149" data-name="Rectangle 149" width="21.25" height="21.732" transform="translate(32.447 3.071) rotate(-8.31)" fill="#263238" stroke="#263238" stroke-linecap="round" stroke-linejoin="round" stroke-width="1"/>
      <path id="Path_2094" data-name="Path 2094" d="M302.714,78.428l-4.14,5.944-3.979-.536a1.275,1.275,0,0,0-1.071.364l-5.634,5.612.755,5.27,21.025-3.074L308.064,80.95l-3.481-2.769a1.28,1.28,0,0,0-1.869.246Z" transform="translate(-253.059 -70.483)" fill="#fff" stroke="#263238" stroke-linecap="round" stroke-linejoin="round" stroke-width="1"/>
      <path id="Path_2095" data-name="Path 2095" d="M297.648,78.8a2.742,2.742,0,1,0-3.053-2.324,2.71,2.71,0,0,0,3.053,2.324Z" transform="translate(-256.159 -68.373)" fill="#fff" stroke="#263238" stroke-linecap="round" stroke-linejoin="round" stroke-width="1"/>
      <rect id="Rectangle_150" data-name="Rectangle 150" width="21.192" height="21.672" transform="translate(37.648 68.711) rotate(21.161)" fill="#263238" stroke="#263238" stroke-linecap="round" stroke-linejoin="round" stroke-width="0.997"/>
      <path id="Path_2096" data-name="Path 2096" d="M299.141,217.014l-6.539,3.144-3.213-2.426a1.285,1.285,0,0,0-1.119-.214l-7.647,2.1-1.912,4.922,19.815,7.69,4.043-10.416-1.655-4.124a1.291,1.291,0,0,0-1.773-.68Z" transform="translate(-248.795 -135.042)" fill="#fff" stroke="#263238" stroke-linecap="round" stroke-linejoin="round" stroke-width="1"/>
      <path id="Path_2097" data-name="Path 2097" d="M299.825,209.066a2.742,2.742,0,1,0-1.5-3.524A2.71,2.71,0,0,0,299.825,209.066Z" transform="translate(-257.812 -128.964)" fill="#fff" stroke="#263238" stroke-linecap="round" stroke-linejoin="round" stroke-width="1"/>
    </g>
    <g id="freepik--Arrows--inject-9" transform="translate(72.226 55.669)">
      <g id="Group_137" data-name="Group 137" transform="translate(0 59.535)" opacity="0.2">
        <path id="Path_2101" data-name="Path 2101" d="M410.543,239.128,401.7,228l-8.842,11.128h3.46V255.88h10.764V239.128Z" transform="translate(-263.941 -228)" fill="none" stroke="#000" stroke-linecap="round" stroke-linejoin="round" stroke-width="1"/>
        <path id="Path_2102" data-name="Path 2102" d="M288.708,341.6l-8.836-11.128L271.03,341.6h3.459v16.757h10.764V341.6Z" transform="translate(-207.355 -275.594)" fill="none" stroke="#000" stroke-linecap="round" stroke-linejoin="round" stroke-width="1"/>
        <path id="Path_2103" data-name="Path 2103" d="M334.908,272.058l-8.842-11.128-8.836,11.128h3.454V288.81h10.764V272.058Z" transform="translate(-228.813 -243.295)" fill="none" stroke="#000" stroke-linecap="round" stroke-linejoin="round" stroke-width="1"/>
        <path id="Path_2104" data-name="Path 2104" d="M169.808,239.658l-8.842-11.128-8.836,11.128h3.46V256.41h10.764V239.658Z" transform="translate(-152.13 -228.246)" fill="none" stroke="#000" stroke-linecap="round" stroke-linejoin="round" stroke-width="1"/>
      </g>
      <g id="Group_138" data-name="Group 138" transform="translate(0.578)" opacity="0.2">
        <path id="Path_2105" data-name="Path 2105" d="M170.893,127.958l-8.842-11.128-8.842,11.128h3.46V144.71h10.764V127.958Z" transform="translate(-153.21 -116.83)" fill="none" stroke="#000" stroke-linecap="round" stroke-linejoin="round" stroke-width="1"/>
        <path id="Path_2106" data-name="Path 2106" d="M397.878,149.138l-8.842-11.128L380.2,149.138h3.454V165.89h10.77V149.138Z" transform="translate(-258.639 -126.667)" fill="none" stroke="#000" stroke-linecap="round" stroke-linejoin="round" stroke-width="1"/>
        <path id="Path_2107" data-name="Path 2107" d="M244.888,204.008l-8.842-11.128-8.836,11.128h3.454v16.757h10.764V204.008Z" transform="translate(-187.58 -152.153)" fill="none" stroke="#000" stroke-linecap="round" stroke-linejoin="round" stroke-width="1"/>
      </g>
    </g>
    <g id="freepik--Character--inject-9" transform="translate(17.764 113.705)">
      <path id="Path_2108" data-name="Path 2108" d="M54.166,444.58c-.289.1-2.9,9.474-3.577,10.711s1.071,2.319,1.933,3,3.385,3.674,6.191,4.643,6.673.771,6.185-.1-4.156-2.71-5.029-3.872-2.03-5.993-2.03-5.993l3.481-6.769Z" transform="translate(-50.435 -327.095)" fill="#fff" stroke="#263238" stroke-linecap="round" stroke-linejoin="round" stroke-width="1"/>
      <path id="Path_2109" data-name="Path 2109" d="M63.888,446.242l-.2-.086L56.75,444.55a10.76,10.76,0,0,0-.75,2.1,27.374,27.374,0,0,0,6.2,2.9Z" transform="translate(-53.019 -327.081)" fill="#263238" stroke="#263238" stroke-linecap="round" stroke-linejoin="round" stroke-width="1"/>
      <path id="Path_2110" data-name="Path 2110" d="M59.868,465.967a22.307,22.307,0,0,1-1.815-5.146,7.294,7.294,0,0,0-1.569.991,5.892,5.892,0,0,0-1.157,1.355l-3.781-3.556a23.786,23.786,0,0,1-.959,2.678c-.68,1.258,1.071,2.319,1.933,3s3.385,3.674,6.191,4.643,6.673.771,6.185-.1S60.741,467.129,59.868,465.967Z" transform="translate(-50.434 -334.076)" fill="#cb955b" stroke="#263238" stroke-linecap="round" stroke-linejoin="round" stroke-width="1"/>
      <path id="Path_2111" data-name="Path 2111" d="M127.82,446.969s5.221,14.995,5.612,15.862a2.233,2.233,0,0,0,2.512.868c.868-.2,4.45-2.03,7.449-2.415s5.029-2.806,5.125-3.578-6.866.578-8.9,0a6.989,6.989,0,0,1-3.963-3.1c-.214-.675-.868-10.711-.868-10.711Z" transform="translate(-86.377 -326.779)" fill="#fff" stroke="#263238" stroke-linecap="round" stroke-linejoin="round" stroke-width="1"/>
      <path id="Path_2112" data-name="Path 2112" d="M134.792,443.85l-6.962,3.1.648,1.848A21.65,21.65,0,0,0,135,446.822C134.883,445.141,134.792,443.85,134.792,443.85Z" transform="translate(-86.381 -326.756)" fill="#263238" stroke="#263238" stroke-linecap="round" stroke-linejoin="round" stroke-width="1"/>
      <path id="Path_2113" data-name="Path 2113" d="M147.564,471.827c2.994-.386,5.029-2.806,5.125-3.577s-6.866.578-8.9,0a7.5,7.5,0,0,1-2.822-1.649,4.625,4.625,0,0,0-.075.584,6.057,6.057,0,0,0,.1,1.933s-2.64,1.355-4.188,2.073c.418,1.178.718,2,.8,2.185a2.23,2.23,0,0,0,2.512.867C140.983,474.039,144.565,472.212,147.564,471.827Z" transform="translate(-90.548 -337.322)" fill="#cb955b" stroke="#263238" stroke-linecap="round" stroke-linejoin="round" stroke-width="1"/>
      <path id="Path_2114" data-name="Path 2114" d="M111.219,278.9s2.239-.7,5.5,3.176,10.175,23.655,10.175,23.655-1.424,3.877-5.1,3.267S111.9,288.3,111.9,288.3,109.6,277.525,111.219,278.9Z" transform="translate(-78.398 -250.084)" fill="#fff" stroke="#263238" stroke-linecap="round" stroke-linejoin="round" stroke-width="1"/>
      <path id="Path_2115" data-name="Path 2115" d="M73.8,264.5s1.564,4.424.83,6.426-5.618,1.1-8.033,4.054,3.036,23.847,3.036,23.847-5.709,11.048-6.908,18.235-1.933,29.744-2.142,30.756-3.036,12.157-2.485,12.06,4.97,2.394,6.351,2.854,2.024.739,2.024.739,7.738-11.509,10.041-16.944S81.3,328.662,81.3,328.662l12.8,33.707,8.472-2.394-1.473-29.84s-.921-11.418-3.776-18.781a80.389,80.389,0,0,0-7.091-13.72s2.485-9.029,1.746-13.265-5.248-12.151-5.248-12.151-2.3-.1-3.213-.921-2.581-6.357-2.581-6.357Z" transform="translate(-53.96 -243.454)" fill="#263238" stroke="#263238" stroke-linecap="round" stroke-linejoin="round" stroke-width="1"/>
      <path id="Path_2116" data-name="Path 2116" d="M100.47,279.209l-2.619-6.389c-.214-.4-.348-.621-.348-.621s-2.3-.1-3.213-.921-2.581-6.357-2.581-6.357l-7.182-.461s1.564,4.424.83,6.426c-.434,1.189-2.3,1.366-4.247,1.906a7.251,7.251,0,0,1,2.978,3.61,24,24,0,0,0,3.245,6.341Z" transform="translate(-64.682 -243.435)" fill="#fff" stroke="#263238" stroke-linecap="round" stroke-linejoin="round" stroke-width="1"/>
      <path id="Path_2117" data-name="Path 2117" d="M95.122,266.412c-.278-.841-.461-1.451-.461-1.451L87.48,264.5s1.258,3.572.98,5.768A15.218,15.218,0,0,0,95.122,266.412Z" transform="translate(-67.64 -243.454)" fill="#263238" stroke="#263238" stroke-linecap="round" stroke-linejoin="round" stroke-width="1"/>
      <line id="Line_91" data-name="Line 91" y1="11.653" x2="2.646" transform="translate(27.391 73.577)" fill="none" stroke="#858585" stroke-linecap="round" stroke-linejoin="round" stroke-width="1"/>
      <path id="Path_2118" data-name="Path 2118" d="M56.749,439.664l-.289,2.142a14,14,0,0,0,4.573,2.983,38.435,38.435,0,0,0,4.284,1.451l2.142-2.806a39.4,39.4,0,0,1-5.853-2.292C57.933,439.4,56.963,439,56.963,439Z" transform="translate(-53.233 -324.503)" fill="#fff" stroke="#263238" stroke-linecap="round" stroke-linejoin="round" stroke-width="1"/>
      <path id="Path_2119" data-name="Path 2119" d="M122.59,442.487l1.071,2.806s5.516-.777,7.546-1.741,3.213-1.451,3.213-1.451l-.386-3.481Z" transform="translate(-83.948 -324.326)" fill="#fff" stroke="#263238" stroke-linecap="round" stroke-linejoin="round" stroke-width="1"/>
      <path id="Path_2120" data-name="Path 2120" d="M98.951,290.795c-.734-4.236-5.248-12.151-5.248-12.151a9.572,9.572,0,0,1-2.094-.353c0,.059.048.107.07.166.461,1.109,2.212,5.987,2.212,5.987l-10.405,1.1a32.545,32.545,0,0,1-1.66-3.5,7.8,7.8,0,0,0-2.838-3.213c-1.778.444-4.043.841-5.446,2.576-2.351,2.887,2.828,23.028,3.031,23.821,16.714.364,20.634-1.167,20.634-1.167S99.69,295.031,98.951,290.795Z" transform="translate(-60.882 -249.859)" fill="#cb955b" stroke="#263238" stroke-linecap="round" stroke-linejoin="round" stroke-width="1"/>
      <path id="Path_2122" data-name="Path 2122" d="M76.7,285.7s-1.012-3.775-4.049-3.5-5.066,3.315-4.515,7.83,3.867,22.1,4.515,23.483S98.9,317.468,98.9,317.468a20.792,20.792,0,0,0,3.867,1.1c.921,0,5.618-.182,6.078-.734s1.012-.921.648-1.2-2.951.1-3.593-.182a22.293,22.293,0,0,1-2.394-1.564,11.849,11.849,0,0,0,2.678-.46c.375-.273,1.564-1.291.643-1.291s-2.3.278-3.5.278a16.684,16.684,0,0,0-3.749.916A97.8,97.8,0,0,1,89.783,311c-3.867-1.655-9.024-3.958-9.024-3.958Z" transform="translate(-58.616 -251.667)" fill="#fff" stroke="#263238" stroke-linecap="round" stroke-linejoin="round" stroke-width="1"/>
      <path id="Path_2123" data-name="Path 2123" d="M83.823,234.835s2.142-1.018,1.478-5.618-9.393-4.793-14.379-2.854-8.933,3.958-8.033,9.757,5.355,7.182,6.2,7.921a2.724,2.724,0,0,1,.76,3.133c-.536,1.018-1.291.825-1.291.825s-.091,1.018,2.485,1.291a4.686,4.686,0,0,0,4.863-3.31c.364-1.564-.648-4.049.825-6.078s3.133-4.145,3.042-5.521-.187-1.939-.187-1.939Z" transform="translate(-56.159 -225.201)" fill="#263238" stroke="#263238" stroke-linecap="round" stroke-linejoin="round" stroke-width="1"/>
      <path id="Path_2124" data-name="Path 2124" d="M85.5,236.73a12.665,12.665,0,0,1-2.678,7.728c-2.838,3.47-4.284,3.786-4.284,3.786s-.787,3.31,5.832,5.677,8.2-1.735,8.515-4.734-.471-8.2-1.89-9.773S85.5,236.73,85.5,236.73Z" transform="translate(-63.472 -230.556)" fill="#fff" stroke="#263238" stroke-linecap="round" stroke-linejoin="round" stroke-width="1"/>
      <path id="Path_2125" data-name="Path 2125" d="M78.136,257.447s-2.678-4.413-4.1-1.735.316,4.418,2.206,4.418a8.2,8.2,0,0,0,2.994-.477" transform="translate(-61.156 -238.971)" fill="#fff" stroke="#263238" stroke-linecap="round" stroke-linejoin="round" stroke-width="1"/>
      <path id="Path_2126" data-name="Path 2126" d="M96.42,245.25s.739,1.655,1.751,1.655,2.024-.643,1.564.536a2.8,2.8,0,0,1-1.012,1.473" transform="translate(-71.793 -234.513)" fill="none" stroke="#263238" stroke-linecap="round" stroke-linejoin="round" stroke-width="1"/>
      <path id="Path_2127" data-name="Path 2127" d="M91.78,255.523a5.109,5.109,0,0,0,4.7-.643" transform="translate(-69.638 -238.986)" fill="none" stroke="#263238" stroke-linecap="round" stroke-linejoin="round" stroke-width="1"/>
      <path id="Path_2128" data-name="Path 2128" d="M92.044,246.989c.246.611.214,1.2-.07,1.317s-.712-.294-.959-.91-.214-1.2.07-1.312S91.8,246.373,92.044,246.989Z" transform="translate(-69.206 -234.891)" fill="#263238"/>
      <path id="Path_2129" data-name="Path 2129" d="M98.969,244.449c.246.611.214,1.2-.07,1.317s-.712-.294-.953-.91-.22-1.2.064-1.312S98.739,243.833,98.969,244.449Z" transform="translate(-72.424 -233.711)" fill="#263238"/>
      <path id="Path_2130" data-name="Path 2130" d="M155.39,306.919a2.142,2.142,0,0,0-1.483-.337c-.685.075-1.607.252-1.607.6,0,.536,2.544,1.109,3.32.536C155.984,307.46,155.738,307.155,155.39,306.919Z" transform="translate(-97.747 -262.99)" fill="#fff" stroke="#263238" stroke-linecap="round" stroke-linejoin="round" stroke-width="1"/>
      <path id="Path_2131" data-name="Path 2131" d="M156.09,309.557a2.19,2.19,0,0,0-1.483-.343c-.686.08-1.607.252-1.607.605,0,.536,2.544,1.1,3.32.536C156.685,310.093,156.433,309.787,156.09,309.557Z" transform="translate(-98.072 -264.214)" fill="#fff" stroke="#263238" stroke-linecap="round" stroke-linejoin="round" stroke-width="1"/>
      <path id="Path_2132" data-name="Path 2132" d="M155.89,312.347a2.19,2.19,0,0,0-1.483-.343c-.685.08-1.607.252-1.607.605,0,.535,2.544,1.109,3.32.535C156.484,312.888,156.238,312.583,155.89,312.347Z" transform="translate(-97.979 -265.51)" fill="#fff" stroke="#263238" stroke-linecap="round" stroke-linejoin="round" stroke-width="1"/>
      <path id="Path_2133" data-name="Path 2133" d="M154.785,314.9a1.655,1.655,0,0,0-1.114-.257c-.535.059-1.221.193-1.221.455,0,.418,1.912.83,2.49.418C155.235,315.3,155.047,315.072,154.785,314.9Z" transform="translate(-97.817 -266.735)" fill="#fff" stroke="#263238" stroke-linecap="round" stroke-linejoin="round" stroke-width="1"/>
    </g>
    <g id="freepik--Floor--inject-9" transform="translate(3.072 250.695)">
      <line id="Line_92" data-name="Line 92" x2="243.133" fill="none" stroke="#263238" stroke-linecap="round" stroke-linejoin="round" stroke-width="1"/>
    </g>
    <g id="Group_139" data-name="Group 139" transform="matrix(0.891, -0.454, 0.454, 0.891, 44.457, 158.6)">
      <rect id="Rectangle_155" data-name="Rectangle 155" width="21.192" height="21.672" transform="translate(7.824 0) rotate(21.161)" fill="#263238" stroke="#263238" stroke-linecap="round" stroke-linejoin="round" stroke-width="0.997"/>
      <path id="Path_2134" data-name="Path 2134" d="M20.431.134,13.892,3.278,10.679.852A1.285,1.285,0,0,0,9.559.638l-7.647,2.1L0,7.664l19.815,7.69L23.858,4.938,22.2.814a1.291,1.291,0,0,0-1.773-.68Z" transform="translate(0.09 13.126)" fill="#fff" stroke="#263238" stroke-linecap="round" stroke-linejoin="round" stroke-width="1"/>
      <path id="Path_2135" data-name="Path 2135" d="M1.7,5.274A2.742,2.742,0,1,0,.2,1.75,2.71,2.71,0,0,0,1.7,5.274Z" transform="translate(10.488 6.117)" fill="#fff" stroke="#263238" stroke-linecap="round" stroke-linejoin="round" stroke-width="1"/>
    </g>
  </g>
</svg>
