<svg xmlns="http://www.w3.org/2000/svg" width="36" height="22.608" viewBox="0 0 36 22.608">
  <g id="visa" transform="translate(0 -6.696)">
    <path id="Path_3707" data-name="Path 3707" d="M1.44,6.7A1.44,1.44,0,0,0,0,8.136V27.864A1.44,1.44,0,0,0,1.44,29.3H34.56A1.44,1.44,0,0,0,36,27.864V8.136A1.44,1.44,0,0,0,34.56,6.7ZM21.5,13.434a5.5,5.5,0,0,1,2.026.373l-.306,1.925-.2-.1a3.931,3.931,0,0,0-1.692-.341c-.885,0-1.294.395-1.294.764-.005.416.478.69,1.268,1.1,1.3.634,1.906,1.4,1.9,2.413-.018,1.844-1.56,3.035-3.935,3.035a6.738,6.738,0,0,1-2.518-.474l.317-1.989.291.142a4.471,4.471,0,0,0,2.127.466c.65,0,1.347-.272,1.352-.867,0-.389-.291-.666-1.171-1.1-.857-.425-1.994-1.137-1.981-2.413C17.7,14.639,19.268,13.434,21.5,13.434Zm-18.317.282H6.832a.946.946,0,0,1,1.025.71l.786,4.059s0,0,0,0L8.88,19.7l2.215-5.987h2.4L9.929,22.48l-2.394,0L5.63,15.41a6.4,6.4,0,0,1,2.658,2.252,6.348,6.348,0,0,0-.577-.981,7.91,7.91,0,0,0-1.15-1.114A8.534,8.534,0,0,0,3.156,13.89l.028-.174Zm11.26.01h2.343l-1.466,8.75H12.978Zm13.236,0h1.775l1.858,8.75H29.182s-.211-1.005-.28-1.312l-2.941,0c-.089.237-.484,1.315-.484,1.315H23.067l3.41-8.023a1.138,1.138,0,0,1,1.2-.727Zm.174,2.353c-.115.325-.316.851-.3.828,0,0-.721,1.924-.91,2.423h1.9c-.091-.434-.529-2.5-.529-2.5l-.154-.747Z" fill="#fff"/>
  </g>
</svg>
